<svg width="340" height="560" viewBox="0 0 340 560" fill="none" xmlns="http://www.w3.org/2000/svg">
<rect x="220" y="60" width="10" height="70" fill="#302F51"/>
<rect x="230" y="60" width="10" height="70" fill="#418091"/>
<rect x="240" y="60" width="10" height="70" fill="#8ED23D"/>
<rect x="20" y="60" width="10" height="500" fill="#302F51"/>
<rect x="30" y="60" width="10" height="500" fill="#418091"/>
<rect x="40" y="60" width="10" height="500" fill="#8ED23D"/>
<rect x="20" width="10" height="30" fill="#302F51"/>
<rect x="30" width="10" height="30" fill="#418091"/>
<rect x="40" width="10" height="30" fill="#8ED23D"/>
<rect x="60" y="130" width="10" height="10" fill="#302F51"/>
<rect x="50" y="140" width="10" height="10" fill="#302F51"/>
<rect x="70" y="120" width="10" height="10" fill="#302F51"/>
<rect x="80" y="110" width="10" height="10" fill="#302F51"/>
<rect x="90" y="100" width="10" height="10" fill="#302F51"/>
<rect x="100" y="90" width="10" height="10" fill="#302F51"/>
<rect x="110" y="80" width="10" height="10" fill="#302F51"/>
<rect x="120" y="70" width="10" height="10" fill="#302F51"/>
<rect x="130" y="60" width="10" height="10" fill="#302F51"/>
<rect x="60" y="140" width="10" height="10" fill="#418091"/>
<rect x="70" y="140" width="10" height="10" fill="#8ED23D"/>
<rect x="50" y="150" width="10" height="10" fill="#418091"/>
<rect x="100" y="100" width="10" height="10" fill="#418091"/>
<rect x="110" y="100" width="10" height="10" fill="#8ED23D"/>
<rect x="70" y="130" width="10" height="10" fill="#418091"/>
<rect x="80" y="130" width="10" height="10" fill="#8ED23D"/>
<rect x="110" y="90" width="10" height="10" fill="#418091"/>
<rect x="120" y="90" width="10" height="10" fill="#8ED23D"/>
<rect x="80" y="120" width="10" height="10" fill="#418091"/>
<rect x="90" y="120" width="10" height="10" fill="#8ED23D"/>
<rect x="120" y="80" width="10" height="10" fill="#418091"/>
<rect x="130" y="80" width="10" height="10" fill="#8ED23D"/>
<rect x="90" y="110" width="10" height="10" fill="#418091"/>
<rect x="100" y="110" width="10" height="10" fill="#8ED23D"/>
<rect x="130" y="70" width="10" height="10" fill="#418091"/>
<rect x="140" y="70" width="10" height="10" fill="#8ED23D"/>
<rect x="140" y="60" width="20" height="10" fill="#418091"/>
<rect x="50" y="170" width="10" height="10" fill="#302F51"/>
<rect x="70" y="150" width="10" height="10" fill="#302F51"/>
<rect x="60" y="150" width="10" height="10" fill="#8ED23D"/>
<rect x="60" y="160" width="10" height="10" fill="#302F51"/>
<rect x="50" y="160" width="10" height="10" fill="#418091"/>
<rect x="80" y="140" width="10" height="10" fill="#302F51"/>
<rect x="90" y="130" width="10" height="10" fill="#302F51"/>
<rect x="100" y="120" width="10" height="10" fill="#302F51"/>
<rect x="110" y="110" width="10" height="10" fill="#302F51"/>
<rect x="120" y="100" width="10" height="10" fill="#302F51"/>
<rect x="130" y="90" width="10" height="10" fill="#302F51"/>
<rect x="140" y="80" width="10" height="10" fill="#302F51"/>
<rect x="150" y="70" width="10" height="10" fill="#302F51"/>
<rect x="160" y="60" width="10" height="10" fill="#302F51"/>
<rect y="30" width="340" height="10" fill="#8ED23D"/>
<rect y="40" width="340" height="10" fill="#418091"/>
<rect y="50" width="340" height="10" fill="#302F51"/>
</svg>
