<svg width="600" height="300" viewBox="0 0 600 300" fill="none" xmlns="http://www.w3.org/2000/svg">
<g clip-path="url(#clip0_12972_253)">
<rect x="6" y="6" width="588" height="285" fill="#CADCA0"/>
<rect x="15" y="48" width="567" height="234" fill="#DFF8D0"/>
<rect x="12" y="48" width="3" height="234" fill="#0E0E0E"/>
<rect x="582" y="48" width="3" height="234" fill="#0E0E0E"/>
<rect x="3" y="3" width="3" height="3" fill="#0E0E0E"/>
<rect x="591" y="3" width="3" height="3" fill="#0E0E0E"/>
<rect y="6" width="3" height="285" fill="#0E0E0E"/>
<rect x="3" y="6" width="3" height="285" fill="#D9FF9C"/>
<rect x="597" y="9" width="3" height="285" fill="#0E0E0E"/>
<rect x="594" y="6" width="3" height="289" fill="#0E0E0E"/>
<rect x="591" y="6" width="3" height="285" fill="#30622F"/>
<rect x="3" y="291" width="3" height="3" fill="#0E0E0E"/>
<rect x="594" y="294" width="3" height="3" fill="#0E0E0E"/>
<rect x="591" y="291" width="3" height="3" fill="#0E0E0E"/>
<rect x="6" width="585" height="3" fill="#0E0E0E"/>
<rect x="6" y="3" width="585" height="3" fill="#D9FF9C"/>
<rect x="15" y="45" width="567" height="3" fill="#0E0E0E"/>
<rect x="15" y="282" width="567" height="3" fill="#0E0E0E"/>
<rect x="9" y="297" width="585" height="3" fill="#0E0E0E"/>
<rect x="6" y="294" width="588" height="3" fill="#0E0E0E"/>
<rect x="6" y="291" width="585" height="3" fill="#30622F"/>
<rect x="18" y="33" width="18" height="3" fill="#322D51"/>
<rect x="18" y="18" width="3" height="15" fill="#322D51"/>
<rect x="21" y="18" width="3" height="15" fill="#D9FF9C"/>
<rect x="33" y="21" width="3" height="9" fill="#418091"/>
<rect x="24" y="21" width="9" height="9" fill="#DFF8D0"/>
<rect x="36" y="15" width="3" height="21" fill="#322D51"/>
<rect x="18" y="15" width="18" height="3" fill="#322D51"/>
<rect x="24" y="18" width="12" height="3" fill="#D9FF9C"/>
<rect x="24" y="30" width="12" height="3" fill="#418091"/>
<rect x="561" y="33" width="18" height="3" fill="#322D51"/>
<rect x="561" y="18" width="3" height="15" fill="#322D51"/>
<rect x="564" y="18" width="3" height="15" fill="#D9FF9C"/>
<rect x="576" y="21" width="3" height="9" fill="#418091"/>
<rect x="567" y="21" width="9" height="9" fill="#DFF8D0"/>
<rect x="579" y="15" width="3" height="21" fill="#322D51"/>
<rect x="561" y="15" width="18" height="3" fill="#322D51"/>
<rect x="567" y="18" width="12" height="3" fill="#D9FF9C"/>
<rect x="567" y="21" width="3" height="3" fill="#322D51"/>
<rect x="570" y="24" width="3" height="3" fill="#322D51"/>
<rect x="573" y="27" width="3" height="3" fill="#322D51"/>
<rect x="573" y="21" width="3" height="3" fill="#322D51"/>
<rect x="567" y="27" width="3" height="3" fill="#322D51"/>
<rect x="567" y="30" width="12" height="3" fill="#418091"/>
<rect x="528" y="33" width="18" height="3" fill="#322D51"/>
<rect x="528" y="18" width="3" height="15" fill="#322D51"/>
<rect x="531" y="18" width="3" height="15" fill="#D9FF9C"/>
<rect x="543" y="21" width="3" height="9" fill="#418091"/>
<rect x="534" y="21" width="9" height="9" fill="#DFF8D0"/>
<rect x="546" y="15" width="3" height="21" fill="#322D51"/>
<rect x="528" y="15" width="18" height="3" fill="#322D51"/>
<rect x="534" y="18" width="12" height="3" fill="#D9FF9C"/>
<rect x="534" y="30" width="12" height="3" fill="#418091"/>
<rect x="534" y="27" width="9" height="3" fill="#322D51"/>
<rect x="51" y="15" width="150" height="3" fill="#322D51"/>
<rect x="51" y="21" width="150" height="3" fill="#322D51"/>
<rect x="51" y="27" width="150" height="3" fill="#322D51"/>
<rect x="51" y="33" width="150" height="3" fill="#322D51"/>
<rect x="366" y="15" width="150" height="3" fill="#322D51"/>
<rect x="366" y="21" width="150" height="3" fill="#322D51"/>
<rect x="366" y="27" width="150" height="3" fill="#322D51"/>
<rect x="366" y="33" width="150" height="3" fill="#322D51"/>
<g clip-path="url(#clip1_12972_253)">
<rect x="372" y="248" width="6" height="3" fill="#303353"/>
<rect x="375" y="245" width="6" height="3" fill="#303353"/>
<rect x="378" y="203" width="3" height="45" fill="#303353"/>
<rect x="375" y="200" width="3" height="3" fill="#303353"/>
<rect x="186" y="248" width="3" height="3" fill="#303353"/>
<rect x="189" y="248" width="3" height="3" fill="#303353"/>
<rect x="189" y="251" width="186" height="3" fill="#303353"/>
<rect x="192" y="254" width="180" height="3" fill="#303353"/>
<rect x="186" y="245" width="3" height="3" fill="#30622F"/>
<rect x="189" y="197" width="3" height="3" fill="#30622F"/>
<rect x="372" y="197" width="3" height="3" fill="#303353"/>
<rect x="192" y="194" width="180" height="3" fill="#30622F"/>
<rect x="192" y="206" width="180" height="36" fill="#8BCD48"/>
<rect x="192" y="197" width="180" height="3" fill="#8BCD48"/>
<rect x="195" y="203" width="174" height="3" fill="#8BCD48"/>
<rect x="195" y="242" width="174" height="3" fill="#8BCD48"/>
<rect x="192" y="248" width="180" height="3" fill="#8BCD48"/>
<rect x="186" y="203" width="3" height="42" fill="#8BCD48"/>
<rect x="375" y="203" width="3" height="42" fill="#8BCD48"/>
<rect x="192" y="242" width="3" height="3" fill="#D9FF9C"/>
<rect x="369" y="242" width="3" height="3" fill="#D9FF9C"/>
<rect x="192" y="203" width="3" height="3" fill="#D9FF9C"/>
<rect x="189" y="200" width="3" height="6" fill="#8BCD48"/>
<rect x="372" y="200" width="3" height="6" fill="#8BCD48"/>
<rect x="369" y="200" width="3" height="3" fill="#8BCD48"/>
<rect x="369" y="245" width="3" height="3" fill="#8BCD48"/>
<rect x="192" y="245" width="3" height="3" fill="#8BCD48"/>
<rect x="192" y="200" width="3" height="3" fill="#8BCD48"/>
<rect x="189" y="242" width="3" height="6" fill="#8BCD48"/>
<rect x="372" y="242" width="3" height="6" fill="#8BCD48"/>
<rect x="369" y="203" width="3" height="3" fill="#D9FF9C"/>
<rect x="186" y="200" width="3" height="3" fill="#30622F"/>
<rect x="183" y="203" width="3" height="45" fill="#30622F"/>
<rect x="195" y="245" width="174" height="3" fill="#D9FF9C"/>
<rect x="195" y="200" width="174" height="3" fill="#D9FF9C"/>
<rect x="189" y="206" width="3" height="36" fill="#D9FF9C"/>
<rect x="372" y="206" width="3" height="36" fill="#D9FF9C"/>
</g>
</g>
<defs>
<clipPath id="clip0_12972_253">
<rect width="600" height="300" fill="white"/>
</clipPath>
<clipPath id="clip1_12972_253">
<rect width="198" height="63" fill="white" transform="translate(183 194)"/>
</clipPath>
</defs>
</svg>
