<svg width="198" height="63" viewBox="0 0 198 63" fill="none" xmlns="http://www.w3.org/2000/svg">
<g clip-path="url(#clip0_12972_395)">
<rect x="189" y="54" width="6" height="3" fill="#303353"/>
<rect x="192" y="51" width="6" height="3" fill="#303353"/>
<rect x="195" y="9" width="3" height="45" fill="#303353"/>
<rect x="192" y="6" width="3" height="3" fill="#303353"/>
<rect x="3" y="54" width="3" height="3" fill="#303353"/>
<rect x="6" y="54" width="3" height="3" fill="#303353"/>
<rect x="6" y="57" width="186" height="3" fill="#303353"/>
<rect x="9" y="60" width="180" height="3" fill="#303353"/>
<rect x="3" y="51" width="3" height="3" fill="#30622F"/>
<rect x="6" y="3" width="3" height="3" fill="#30622F"/>
<rect x="189" y="3" width="3" height="3" fill="#303353"/>
<rect x="9" width="180" height="3" fill="#30622F"/>
<rect x="9" y="12" width="180" height="36" fill="#8BCD48"/>
<rect x="9" y="3" width="180" height="3" fill="#8BCD48"/>
<rect x="12" y="9" width="174" height="3" fill="#8BCD48"/>
<rect x="12" y="48" width="174" height="3" fill="#8BCD48"/>
<rect x="9" y="54" width="180" height="3" fill="#8BCD48"/>
<rect x="3" y="9" width="3" height="42" fill="#8BCD48"/>
<rect x="192" y="9" width="3" height="42" fill="#8BCD48"/>
<rect x="9" y="48" width="3" height="3" fill="#D9FF9C"/>
<rect x="186" y="48" width="3" height="3" fill="#D9FF9C"/>
<rect x="9" y="9" width="3" height="3" fill="#D9FF9C"/>
<rect x="6" y="6" width="3" height="6" fill="#8BCD48"/>
<rect x="189" y="6" width="3" height="6" fill="#8BCD48"/>
<rect x="186" y="6" width="3" height="3" fill="#8BCD48"/>
<rect x="186" y="51" width="3" height="3" fill="#8BCD48"/>
<rect x="9" y="51" width="3" height="3" fill="#8BCD48"/>
<rect x="9" y="6" width="3" height="3" fill="#8BCD48"/>
<rect x="6" y="48" width="3" height="6" fill="#8BCD48"/>
<rect x="189" y="48" width="3" height="6" fill="#8BCD48"/>
<rect x="186" y="9" width="3" height="3" fill="#D9FF9C"/>
<rect x="3" y="6" width="3" height="3" fill="#30622F"/>
<rect y="9" width="3" height="45" fill="#30622F"/>
<rect x="12" y="51" width="174" height="3" fill="#D9FF9C"/>
<rect x="12" y="6" width="174" height="3" fill="#D9FF9C"/>
<rect x="6" y="12" width="3" height="36" fill="#D9FF9C"/>
<rect x="189" y="12" width="3" height="36" fill="#D9FF9C"/>
</g>
<defs>
<clipPath id="clip0_12972_395">
<rect width="198" height="63" fill="white"/>
</clipPath>
</defs>
</svg>
