<svg width="60" height="70" viewBox="0 0 60 70" fill="none" xmlns="http://www.w3.org/2000/svg">
<rect x="60" y="70" width="50" height="10" transform="rotate(-180 60 70)" fill="#0F380E"/>
<rect x="60" y="60" width="50" height="10" transform="rotate(-180 60 60)" fill="#306230"/>
<rect x="60" y="50" width="40" height="10" transform="rotate(-180 60 50)" fill="#B7DC15"/>
<rect x="60" y="40" width="20" height="10" transform="rotate(-180 60 40)" fill="#0F380E"/>
<rect x="40" y="40" width="10" height="30" transform="rotate(-180 40 40)" fill="#0F380E"/>
<rect x="30" y="40" width="10" height="30" transform="rotate(-180 30 40)" fill="#B7DC15"/>
<rect x="30" y="10" width="20" height="10" transform="rotate(-180 30 10)" fill="#0F380E"/>
<rect x="10" y="60" width="10" height="50" transform="rotate(-180 10 60)" fill="#0F380E"/>
<rect x="20" y="50" width="10" height="40" transform="rotate(-180 20 50)" fill="#306230"/>
</svg>
