<svg width="110" height="150" viewBox="0 0 110 150" fill="none" xmlns="http://www.w3.org/2000/svg">
<rect y="40" width="10" height="110" fill="#0F380E"/>
<rect x="10" y="30" width="10" height="10" fill="#0F380E"/>
<rect x="30" y="20" width="10" height="10" fill="#0F380E"/>
<rect x="20" y="20" width="10" height="10" fill="#481718"/>
<rect x="40" y="20" width="10" height="10" fill="#481718"/>
<rect x="60" y="20" width="10" height="10" fill="#481718"/>
<rect x="40" y="10" width="10" height="10" fill="#481718"/>
<rect x="40" width="10" height="10" fill="#481718"/>
<rect x="10" y="10" width="10" height="10" fill="#481718"/>
<rect x="70" y="10" width="10" height="10" fill="#481718"/>
<rect x="10" width="10" height="10" fill="#481718"/>
<rect x="70" width="10" height="10" fill="#481718"/>
<rect x="70" y="30" width="10" height="10" fill="#0F380E"/>
<rect x="50" y="20" width="10" height="10" fill="#0F380E"/>
<rect x="20" y="30" width="10" height="120" fill="#306230"/>
<rect x="40" y="30" width="10" height="120" fill="#306230"/>
<rect x="60" y="30" width="10" height="120" fill="#306230"/>
<rect x="80" y="40" width="10" height="110" fill="#0F380E"/>
<rect x="10" y="40" width="10" height="110" fill="#B7DC15"/>
<rect x="30" y="30" width="10" height="120" fill="#B7DC15"/>
<rect x="50" y="30" width="10" height="120" fill="#B7DC15"/>
<rect x="70" y="40" width="10" height="110" fill="#B7DC15"/>
<rect x="20" y="90" width="10" height="10" fill="#0F380E"/>
<rect x="60" y="90" width="10" height="10" fill="#0F380E"/>
<rect x="40" y="120" width="10" height="10" fill="#0F380E"/>
<rect x="80" y="10" width="10" height="10" fill="#FFCF6B"/>
<rect x="70" width="10" height="10" fill="#E96559"/>
<rect x="90" width="10" height="10" fill="#E96559"/>
<rect x="90" y="20" width="10" height="10" fill="#E96559"/>
<rect x="70" y="20" width="10" height="10" fill="#E96559"/>
</svg>
